<svg width="375" height="492" viewBox="0 0 375 492" fill="none" xmlns="http://www.w3.org/2000/svg">
<path d="M150.255 235.129C149.208 234.331 143.974 231.302 142 225.699C142 225.699 145.939 222.318 155.609 231.551L150.255 235.129Z" fill="#FFBBBB"/>
<path d="M155.609 232.289L144.952 222.001C144.952 222.001 148.213 220.396 152.898 223.048L150.281 219.35C150.281 219.35 160.904 217.436 165.589 229.08L155.609 232.289Z" fill="#FFBBBB"/>
<path d="M173.654 229.029C173.466 228.969 170.943 224.043 163.984 224.283L166.755 229.827L173.654 229.029Z" fill="#FFBBBB"/>
<path d="M138.186 237.637C138.186 237.637 133.158 227.571 198.295 225.332C198.295 225.332 192.846 233.157 186.136 235.534L138.186 237.637Z" fill="url(#paint0_linear)"/>
<path d="M90.752 268.407C90.752 268.407 99.6245 250.911 109.81 245.823C119.995 240.734 132.643 243.849 132.643 243.849L122.209 270.046L90.752 268.407Z" fill="url(#paint1_linear)"/>
<path d="M82.9519 274.568C79.4767 274.568 76.3018 276.533 74.7401 279.64L17 395.128V434.883H51.6578L115.722 274.56H82.9519V274.568Z" fill="url(#paint2_linear)"/>
<path d="M73 280.164C73 280.164 80.4376 266.905 85.7475 267.239C91.0575 267.563 117.894 268.871 118.865 268.059C119.837 267.239 115.239 281.232 115.239 281.232L73 280.164Z" fill="url(#paint3_linear)"/>
<path d="M237.028 216.622L240.967 209.475C240.967 209.475 231.477 210.213 227.787 216.622C224.097 223.032 214.461 232.025 214.461 232.025C214.461 232.025 228.654 234.359 237.028 216.622Z" fill="url(#paint4_linear)"/>
<path d="M230.867 214.649L234.437 207.501C234.437 207.501 225.075 207.252 221.746 214.649C220.39 218.098 206.103 233.252 206.103 233.252H218.425L230.867 214.649Z" fill="url(#paint5_linear)"/>
<path d="M196.004 233.252C196.004 233.252 212.882 212.306 220.27 212.804C220.27 212.804 210.54 231.656 207.708 235.346L196.004 233.252Z" fill="url(#paint6_linear)"/>
<path d="M187.629 233.99C187.629 233.99 196.313 217.558 206.112 219.325C205.494 219.188 199.093 233.99 199.093 233.99H187.629Z" fill="url(#paint7_linear)"/>
<path d="M240.976 250.748C240.976 250.748 267.585 246.681 276.706 254.078C285.819 261.466 294.94 277.117 294.94 277.117H259.09L240.976 250.748Z" fill="url(#paint8_linear)"/>
<path d="M296.905 273.539L305.778 285.612H259.33L255.752 274.277L296.905 273.539Z" fill="url(#paint9_linear)"/>
<path d="M227.718 235.637C228.98 235.964 241.388 235.311 244.837 245.823C243.275 245.497 220.279 244.922 220.279 244.922L227.718 235.637Z" fill="#FCC7C7"/>
<path d="M375.5 437.192L309.133 285.2C308.592 283.956 307.357 283.149 306.001 283.149H270.545L332.516 437.192H375.5Z" fill="url(#paint10_linear)"/>
<path d="M180.936 254.609C180.936 254.609 186.024 264.374 203.847 266.837C221.669 269.308 221.343 272.835 221.343 272.835L222.656 264.46L180.936 254.609Z" fill="#FFABAB"/>
<path d="M223.805 240.563C223.805 240.563 244.605 237.774 250.552 250.911C256.498 264.048 262.41 279.82 262.41 279.82H219.369C219.369 279.82 223.308 266.185 207.21 262.246C191.113 258.308 166.966 252.061 166.966 252.061L223.805 240.563Z" fill="url(#paint11_linear)"/>
<path d="M281.64 304.79L336.823 437.183H247.609L221.18 304.79H281.64Z" fill="url(#paint12_linear)"/>
<path d="M217.816 276.817C215.765 276.842 214.204 278.661 214.495 280.695C215.705 289.087 218.657 308.325 220.202 308.068C222.175 307.742 285.252 310.376 286.565 308.068C287.878 305.768 273.428 277.512 269.807 276.851C266.795 276.319 229.966 276.679 217.816 276.817Z" fill="url(#paint13_linear)"/>
<path d="M228 304C230.761 304 233 301.761 233 299C233 296.239 230.761 294 228 294C225.238 294 223 296.239 223 299C223 301.761 225.238 304 228 304Z" fill="url(#paint14_linear)"/>
<path d="M229 304.5C231.761 304.5 234 302.261 234 299.5C234 296.739 231.761 294.5 229 294.5C226.239 294.5 224 296.739 224 299.5C224 302.261 226.239 304.5 229 304.5Z" fill="#B2B2FF"/>
<path d="M162.865 265.653C162.865 265.653 159.784 255.305 175.925 252.473C192.065 249.641 223.359 247.788 229.641 237.937C235.922 228.078 244.176 213.671 244.176 213.671C244.176 213.671 236.908 211.328 230.13 222.294C223.351 233.261 210.171 233.012 154.859 231.536C144.39 231.536 133.544 228.756 122.947 257.244L162.865 265.653Z" fill="url(#paint15_linear)"/>
<path d="M119.334 434.883C119.334 434.883 161.054 265.687 166.975 259.123C166.975 259.123 121.308 251.744 119.334 257.235C117.361 262.727 44.4326 434.883 44.4326 434.883H119.334Z" fill="url(#paint16_linear)"/>
<path d="M156 267.5C157.657 267.5 159 266.157 159 264.5C159 262.843 157.657 261.5 156 261.5C154.343 261.5 153 262.843 153 264.5C153 266.157 154.343 267.5 156 267.5Z" fill="white"/>
<path d="M406.989 402.672C400.665 402.509 395.267 401.223 391.272 398.453C352.283 359.253 318.077 392.936 283.87 355.268C265.666 335.212 220.879 328.784 182.997 327.159C150.948 325.78 119.184 333.4 90.8785 348.851C72.6738 358.786 49.3559 367.388 29.3822 361.626C3.89567 354.274 -11.8094 360.095 -32 371.969V492H407V402.672H406.989Z" fill="#E2E2FF"/>
<path d="M266 151C266 151 269.886 147.751 273.558 149.472C273.558 149.472 276.495 145 282.368 145C288.242 145 290.401 148.554 290.401 148.554C290.401 148.554 293.25 146.223 297.959 146.223C302.668 146.223 305 151 305 151H266Z" fill="url(#paint17_linear)"/>
<path d="M312 185C312 185 315.886 181.21 319.558 183.217C319.558 183.217 322.495 178 328.368 178C334.242 178 336.401 182.146 336.401 182.146C336.401 182.146 339.25 179.427 343.959 179.427C348.668 179.427 351 185 351 185H312Z" fill="url(#paint18_linear)"/>
<path d="M26 175C26 175 32.0787 169.044 37.8216 172.198C37.8216 172.198 42.4149 164 51.6015 164C60.7882 164 64.1658 170.516 64.1658 170.516C64.1658 170.516 68.6219 166.242 75.9874 166.242C83.3528 166.242 87 175 87 175H26Z" fill="url(#paint19_linear)"/>
<path d="M374.99 405.665C369.589 405.525 364.977 404.427 361.565 402.06C328.26 368.562 299.041 397.346 269.821 365.156C254.27 348.017 216.013 342.524 183.654 341.136C156.277 339.957 129.144 346.469 104.965 359.673C89.4138 368.162 69.4954 375.513 52.4335 370.589C30.6626 364.307 17.2471 369.281 0 379.428V482H375V405.665H374.99Z" fill="url(#paint20_linear)"/>
<path d="M256 386.5L280.52 399.48V431.89H256V386.5Z" fill="#7ED1FF"/>
<path d="M260 318.85H249.49V356.07H260V318.85Z" fill="#E0E0FF"/>
<path d="M258.52 323.44H250.97C249.33 323.44 248 322.11 248 320.47C248 318.83 249.33 317.5 250.97 317.5H258.52C260.16 317.5 261.49 318.83 261.49 320.47C261.49 322.11 260.16 323.44 258.52 323.44Z" fill="#D0D0FF"/>
<path d="M196.41 348.22V432.68H265.88V348.22L231.15 327.2L196.41 348.22Z" fill="url(#paint21_linear)"/>
<path d="M209 362.06H219.47V374.55H209V362.06Z" stroke="white" stroke-width="2"/>
<path d="M245 377.5H255.47V389.99H245V377.5Z" stroke="white" stroke-width="2"/>
<path d="M267.93 409.97H194V432.68H267.93V409.97Z" fill="#FC9F9B"/>
<path d="M207.99 398.5H196.41V409.85H207.99V398.5Z" stroke="#D4D4FF" stroke-miterlimit="10"/>
<path d="M219.57 398.5H207.99V409.85H219.57V398.5Z" stroke="#D4D4FF" stroke-miterlimit="10"/>
<path d="M231.15 398.5H219.57V409.85H231.15V398.5Z" stroke="#D4D4FF" stroke-miterlimit="10"/>
<path d="M242.73 398.5H231.15V409.85H242.73V398.5Z" stroke="#D4D4FF" stroke-miterlimit="10"/>
<path d="M254.31 398.5H242.73V409.85H254.31V398.5Z" stroke="#D4D4FF" stroke-miterlimit="10"/>
<path d="M265.88 398.5H254.3V409.85H265.88V398.5Z" stroke="#D4D4FF" stroke-miterlimit="10"/>
<path d="M88.4025 431.045C88.4869 431.317 88.5611 431.561 88.6248 431.773C88.5888 431.758 88.5519 431.742 88.514 431.726L88.514 431.726L88.5075 431.724C85.2863 430.42 75.5204 426.25 68.4017 420.968C64.8301 418.318 62.0069 415.447 60.9495 412.582C60.427 411.167 60.3395 409.764 60.7956 408.379C61.2537 406.987 62.2765 405.565 64.0609 404.149L64.0611 404.149C65.794 402.771 67.4402 402.199 68.9933 402.204C70.5513 402.208 72.0748 402.793 73.5562 403.835C76.5362 405.932 79.245 409.808 81.54 414.116C83.8268 418.409 85.6695 423.065 86.9417 426.653C87.5773 428.447 88.0695 429.97 88.4025 431.045Z" stroke="white"/>
<path d="M89.1599 432.527C88.9799 432.457 88.6899 432.347 88.3099 432.187L69.6499 410.687L70.8199 409.807C70.8199 409.797 84.6699 425.587 89.1599 432.527Z" fill="white"/>
<path d="M98.1941 406.392L98.1942 406.393C99.4429 407.097 100.223 407.998 100.66 409.028C101.1 410.066 101.206 411.273 101.04 412.603C100.706 415.277 99.2853 418.346 97.4966 421.283C95.7146 424.209 93.5978 426.954 91.9226 428.972C91.0858 429.979 90.361 430.803 89.8458 431.374C89.7881 431.439 89.733 431.499 89.6807 431.557C89.4094 430.01 89.2072 427.696 89.1608 425.055C89.1039 421.825 89.2807 418.148 89.833 414.853C90.3891 411.536 91.3126 408.694 92.6893 407.055C93.367 406.248 94.1329 405.759 95.0021 405.618C95.8747 405.477 96.9258 405.676 98.1941 406.392Z" stroke="white"/>
<path d="M89.3298 432.337L94.9098 414.367L95.8398 414.527C95.8398 414.527 92.6098 425.107 90.0598 431.887L89.3298 432.337Z" fill="white"/>
<path d="M94.062 412.577L89.2423 431.27C89.1914 431.193 89.141 431.115 89.091 431.037L89.0866 431.03L89.0821 431.024C88.8609 430.702 88.6472 430.391 88.454 430.082L88.4541 430.082L88.4488 430.074C81.5417 419.489 78.4494 410.531 78.4225 404.317C78.4091 401.215 79.1591 398.849 80.5181 397.288C81.8655 395.741 83.872 394.916 86.533 395.007L86.5331 395.007C89.2571 395.099 91.0534 396.211 92.2513 397.812C93.4665 399.436 94.0903 401.598 94.3664 403.805C94.6417 406.006 94.5658 408.203 94.4192 409.857C94.346 410.682 94.2555 411.369 94.1835 411.848C94.1476 412.087 94.1162 412.274 94.094 412.401C94.0829 412.464 94.0741 412.513 94.0682 412.544L94.062 412.577Z" stroke="white"/>
<path d="M88.18 403.457C88.18 403.457 89.2 422.337 88.66 431.307C88.44 430.987 88.22 430.667 88.02 430.347L86.72 403.437L88.18 403.457Z" fill="white"/>
<path d="M186 379.5H173V432.5H186V379.5Z" fill="#FC9F9B"/>
<path d="M176.16 379.5H117V432.84H176.16V379.5Z" fill="url(#paint22_linear)"/>
<path d="M138 387.27H127.5V418.42H138V387.27Z" fill="white"/>
<path d="M162.67 394.79H152.17V421.87H162.67V394.79Z" fill="white"/>
<path d="M319.82 419.64C328.005 419.64 334.64 413.005 334.64 404.82C334.64 396.635 328.005 390 319.82 390C311.635 390 305 396.635 305 404.82C305 413.005 311.635 419.64 319.82 419.64Z" fill="white"/>
<path d="M326.333 422.255L325.846 421.92L320.389 425.266V416.667H319.677V425.423L314.167 421.878L313.667 422.204L319.677 426.076V452H320.389V425.902L326.333 422.255Z" fill="white"/>
<path d="M42.6 370.7C49.5588 370.7 55.2 365.059 55.2 358.1C55.2 351.141 49.5588 345.5 42.6 345.5C35.6412 345.5 30 351.141 30 358.1C30 365.059 35.6412 370.7 42.6 370.7Z" fill="#B2B2FF"/>
<path d="M42.6 393.31C49.5588 393.31 55.2 387.669 55.2 380.71C55.2 373.751 49.5588 368.11 42.6 368.11C35.6412 368.11 30 373.751 30 380.71C30 387.669 35.6412 393.31 42.6 393.31Z" fill="#B2B2FF"/>
<path d="M43.47 383.27V383.25L46.37 380.35C46.49 380.23 46.49 380.04 46.37 379.93C46.25 379.81 46.06 379.81 45.95 379.93L43.98 381.9C43.79 382.09 43.47 381.95 43.47 381.69V359.44C43.47 359.36 43.5 359.28 43.56 359.23L46.09 356.7C46.21 356.58 46.21 356.39 46.09 356.28C45.97 356.16 45.78 356.16 45.67 356.28L42.93 359.02H42.72L38.5 353.64C38.4 353.51 38.21 353.49 38.08 353.59L37.83 353.78C37.7 353.88 37.68 354.07 37.78 354.2L42.5 360.22C42.54 360.27 42.56 360.34 42.56 360.4V381.27C42.56 381.55 42.2 381.68 42.03 381.45L38.77 377.3C38.67 377.17 38.48 377.15 38.35 377.25L38.1 377.44C37.97 377.54 37.95 377.73 38.05 377.86L42.49 383.52C42.53 383.57 42.55 383.64 42.55 383.7V434.63C42.55 434.8 42.68 434.93 42.85 434.93H43.15C43.32 434.93 43.45 434.8 43.45 434.63V383.27H43.47Z" fill="white"/>
<path d="M282 223C284.761 223 287 220.761 287 218C287 215.239 284.761 213 282 213C279.239 213 277 215.239 277 218C277 220.761 279.239 223 282 223Z" fill="#EDEDFF"/>
<path d="M26 274C28.7614 274 31 271.761 31 269C31 266.239 28.7614 264 26 264C23.2386 264 21 266.239 21 269C21 271.761 23.2386 274 26 274Z" fill="#EDEDFF"/>
<path d="M88 227C90.7614 227 93 224.761 93 222C93 219.239 90.7614 217 88 217C85.2386 217 83 219.239 83 222C83 224.761 85.2386 227 88 227Z" fill="#EDEDFF"/>
<path d="M254 197C255.105 197 256 196.105 256 195C256 193.895 255.105 193 254 193C252.895 193 252 193.895 252 195C252 196.105 252.895 197 254 197Z" fill="#FE9B86"/>
<path d="M137 213C137.552 213 138 212.552 138 212C138 211.448 137.552 211 137 211C136.448 211 136 211.448 136 212C136 212.552 136.448 213 137 213Z" fill="#F45D83"/>
<path d="M155 157C155.552 157 156 156.552 156 156C156 155.448 155.552 155 155 155C154.448 155 154 155.448 154 156C154 156.552 154.448 157 155 157Z" fill="#F45D83"/>
<path d="M236 146.5C237.105 146.5 238 145.605 238 144.5C238 143.395 237.105 142.5 236 142.5C234.895 142.5 234 143.395 234 144.5C234 145.605 234.895 146.5 236 146.5Z" fill="#EDEDFF"/>
<path d="M183 137.5C184.105 137.5 185 136.605 185 135.5C185 134.395 184.105 133.5 183 133.5C181.895 133.5 181 134.395 181 135.5C181 136.605 181.895 137.5 183 137.5Z" fill="#EDEDFF"/>
<path d="M140 160.5C141.105 160.5 142 159.605 142 158.5C142 157.395 141.105 156.5 140 156.5C138.895 156.5 138 157.395 138 158.5C138 159.605 138.895 160.5 140 160.5Z" fill="#EDEDFF"/>
<path d="M201 314C203.761 314 206 311.761 206 309C206 306.239 203.761 304 201 304C198.239 304 196 306.239 196 309C196 311.761 198.239 314 201 314Z" fill="#EDEDFF"/>
<path d="M187.724 209.279L170.834 192.777L199.769 161.8C205.539 155.586 215.253 155.225 221.467 160.995L222.478 161.932C229.407 168.362 229.808 179.192 223.373 186.121L202.377 208.736C198.477 212.935 191.918 213.174 187.724 209.279Z" fill="url(#paint23_linear)"/>
<path d="M202.02 208.554L218.248 191.603L187.103 161.891C180.968 156.045 171.247 156.275 165.4 162.414L164.449 163.416C157.925 170.255 158.185 181.087 165.024 187.612L187.362 208.905C191.507 212.853 198.071 212.695 202.02 208.554Z" fill="url(#paint24_linear)"/>
<path d="M116.5 154L153.5 231C177.5 232.5 210.667 233 222 229.5L273.5 154H116.5Z" fill="url(#paint25_linear)"/>
<path d="M51.8894 102.62V113H50.5244V105.26L47.0744 113H46.1144L42.6494 105.245V113H41.2844V102.62H42.7544L46.5944 111.2L50.4344 102.62H51.8894ZM61.7043 108.575C61.7043 108.835 61.6893 109.11 61.6593 109.4H55.0893C55.1393 110.21 55.4143 110.845 55.9143 111.305C56.4243 111.755 57.0393 111.98 57.7593 111.98C58.3493 111.98 58.8393 111.845 59.2293 111.575C59.6293 111.295 59.9093 110.925 60.0693 110.465H61.5393C61.3193 111.255 60.8793 111.9 60.2193 112.4C59.5593 112.89 58.7393 113.135 57.7593 113.135C56.9793 113.135 56.2793 112.96 55.6593 112.61C55.0493 112.26 54.5693 111.765 54.2193 111.125C53.8693 110.475 53.6943 109.725 53.6943 108.875C53.6943 108.025 53.8643 107.28 54.2043 106.64C54.5443 106 55.0193 105.51 55.6293 105.17C56.2493 104.82 56.9593 104.645 57.7593 104.645C58.5393 104.645 59.2293 104.815 59.8293 105.155C60.4293 105.495 60.8893 105.965 61.2093 106.565C61.5393 107.155 61.7043 107.825 61.7043 108.575ZM60.2943 108.29C60.2943 107.77 60.1793 107.325 59.9493 106.955C59.7193 106.575 59.4043 106.29 59.0043 106.1C58.6143 105.9 58.1793 105.8 57.6993 105.8C57.0093 105.8 56.4193 106.02 55.9293 106.46C55.4493 106.9 55.1743 107.51 55.1043 108.29H60.2943ZM73.3911 104.63C74.0311 104.63 74.6011 104.765 75.1011 105.035C75.6011 105.295 75.9961 105.69 76.2861 106.22C76.5761 106.75 76.7211 107.395 76.7211 108.155V113H75.3711V108.35C75.3711 107.53 75.1661 106.905 74.7561 106.475C74.3561 106.035 73.8111 105.815 73.1211 105.815C72.4111 105.815 71.8461 106.045 71.4261 106.505C71.0061 106.955 70.7961 107.61 70.7961 108.47V113H69.4461V108.35C69.4461 107.53 69.2411 106.905 68.8311 106.475C68.4311 106.035 67.8861 105.815 67.1961 105.815C66.4861 105.815 65.9211 106.045 65.5011 106.505C65.0811 106.955 64.8711 107.61 64.8711 108.47V113H63.5061V104.78H64.8711V105.965C65.1411 105.535 65.5011 105.205 65.9511 104.975C66.4111 104.745 66.9161 104.63 67.4661 104.63C68.1561 104.63 68.7661 104.785 69.2961 105.095C69.8261 105.405 70.2211 105.86 70.4811 106.46C70.7111 105.88 71.0911 105.43 71.6211 105.11C72.1511 104.79 72.7411 104.63 73.3911 104.63ZM80.3252 106.31C80.6052 105.82 81.0152 105.42 81.5552 105.11C82.0952 104.8 82.7102 104.645 83.4002 104.645C84.1402 104.645 84.8052 104.82 85.3952 105.17C85.9852 105.52 86.4502 106.015 86.7902 106.655C87.1302 107.285 87.3002 108.02 87.3002 108.86C87.3002 109.69 87.1302 110.43 86.7902 111.08C86.4502 111.73 85.9802 112.235 85.3802 112.595C84.7902 112.955 84.1302 113.135 83.4002 113.135C82.6902 113.135 82.0652 112.98 81.5252 112.67C80.9952 112.36 80.5952 111.965 80.3252 111.485V113H78.9602V101.9H80.3252V106.31ZM85.9052 108.86C85.9052 108.24 85.7802 107.7 85.5302 107.24C85.2802 106.78 84.9402 106.43 84.5102 106.19C84.0902 105.95 83.6252 105.83 83.1152 105.83C82.6152 105.83 82.1502 105.955 81.7202 106.205C81.3002 106.445 80.9602 106.8 80.7002 107.27C80.4502 107.73 80.3252 108.265 80.3252 108.875C80.3252 109.495 80.4502 110.04 80.7002 110.51C80.9602 110.97 81.3002 111.325 81.7202 111.575C82.1502 111.815 82.6152 111.935 83.1152 111.935C83.6252 111.935 84.0902 111.815 84.5102 111.575C84.9402 111.325 85.2802 110.97 85.5302 110.51C85.7802 110.04 85.9052 109.49 85.9052 108.86ZM88.5869 108.86C88.5869 108.02 88.7569 107.285 89.0969 106.655C89.4369 106.015 89.9019 105.52 90.4919 105.17C91.0919 104.82 91.7569 104.645 92.4869 104.645C93.2069 104.645 93.8319 104.8 94.3619 105.11C94.8919 105.42 95.2869 105.81 95.5469 106.28V104.78H96.9269V113H95.5469V111.47C95.2769 111.95 94.8719 112.35 94.3319 112.67C93.8019 112.98 93.1819 113.135 92.4719 113.135C91.7419 113.135 91.0819 112.955 90.4919 112.595C89.9019 112.235 89.4369 111.73 89.0969 111.08C88.7569 110.43 88.5869 109.69 88.5869 108.86ZM95.5469 108.875C95.5469 108.255 95.4219 107.715 95.1719 107.255C94.9219 106.795 94.5819 106.445 94.1519 106.205C93.7319 105.955 93.2669 105.83 92.7569 105.83C92.2469 105.83 91.7819 105.95 91.3619 106.19C90.9419 106.43 90.6069 106.78 90.3569 107.24C90.1069 107.7 89.9819 108.24 89.9819 108.86C89.9819 109.49 90.1069 110.04 90.3569 110.51C90.6069 110.97 90.9419 111.325 91.3619 111.575C91.7819 111.815 92.2469 111.935 92.7569 111.935C93.2669 111.935 93.7319 111.815 94.1519 111.575C94.5819 111.325 94.9219 110.97 95.1719 110.51C95.4219 110.04 95.5469 109.495 95.5469 108.875ZM103.239 104.63C104.239 104.63 105.049 104.935 105.669 105.545C106.289 106.145 106.599 107.015 106.599 108.155V113H105.249V108.35C105.249 107.53 105.044 106.905 104.634 106.475C104.224 106.035 103.664 105.815 102.954 105.815C102.234 105.815 101.659 106.04 101.229 106.49C100.809 106.94 100.599 107.595 100.599 108.455V113H99.2336V104.78H100.599V105.95C100.869 105.53 101.234 105.205 101.694 104.975C102.164 104.745 102.679 104.63 103.239 104.63ZM110.493 105.905V110.75C110.493 111.15 110.578 111.435 110.748 111.605C110.918 111.765 111.213 111.845 111.633 111.845H112.638V113H111.408C110.648 113 110.078 112.825 109.698 112.475C109.318 112.125 109.128 111.55 109.128 110.75V105.905H108.063V104.78H109.128V102.71H110.493V104.78H112.638V105.905H110.493ZM121.582 104.78V113H120.217V111.785C119.957 112.205 119.592 112.535 119.122 112.775C118.662 113.005 118.152 113.12 117.592 113.12C116.952 113.12 116.377 112.99 115.867 112.73C115.357 112.46 114.952 112.06 114.652 111.53C114.362 111 114.217 110.355 114.217 109.595V104.78H115.567V109.415C115.567 110.225 115.772 110.85 116.182 111.29C116.592 111.72 117.152 111.935 117.862 111.935C118.592 111.935 119.167 111.71 119.587 111.26C120.007 110.81 120.217 110.155 120.217 109.295V104.78H121.582ZM137.771 104.63C138.411 104.63 138.981 104.765 139.481 105.035C139.981 105.295 140.376 105.69 140.666 106.22C140.956 106.75 141.101 107.395 141.101 108.155V113H139.751V108.35C139.751 107.53 139.546 106.905 139.136 106.475C138.736 106.035 138.191 105.815 137.501 105.815C136.791 105.815 136.226 106.045 135.806 106.505C135.386 106.955 135.176 107.61 135.176 108.47V113H133.826V108.35C133.826 107.53 133.621 106.905 133.211 106.475C132.811 106.035 132.266 105.815 131.576 105.815C130.866 105.815 130.301 106.045 129.881 106.505C129.461 106.955 129.251 107.61 129.251 108.47V113H127.886V104.78H129.251V105.965C129.521 105.535 129.881 105.205 130.331 104.975C130.791 104.745 131.296 104.63 131.846 104.63C132.536 104.63 133.146 104.785 133.676 105.095C134.206 105.405 134.601 105.86 134.861 106.46C135.091 105.88 135.471 105.43 136.001 105.11C136.531 104.79 137.121 104.63 137.771 104.63ZM150.84 108.575C150.84 108.835 150.825 109.11 150.795 109.4H144.225C144.275 110.21 144.55 110.845 145.05 111.305C145.56 111.755 146.175 111.98 146.895 111.98C147.485 111.98 147.975 111.845 148.365 111.575C148.765 111.295 149.045 110.925 149.205 110.465H150.675C150.455 111.255 150.015 111.9 149.355 112.4C148.695 112.89 147.875 113.135 146.895 113.135C146.115 113.135 145.415 112.96 144.795 112.61C144.185 112.26 143.705 111.765 143.355 111.125C143.005 110.475 142.83 109.725 142.83 108.875C142.83 108.025 143 107.28 143.34 106.64C143.68 106 144.155 105.51 144.765 105.17C145.385 104.82 146.095 104.645 146.895 104.645C147.675 104.645 148.365 104.815 148.965 105.155C149.565 105.495 150.025 105.965 150.345 106.565C150.675 107.155 150.84 107.825 150.84 108.575ZM149.43 108.29C149.43 107.77 149.315 107.325 149.085 106.955C148.855 106.575 148.54 106.29 148.14 106.1C147.75 105.9 147.315 105.8 146.835 105.8C146.145 105.8 145.555 106.02 145.065 106.46C144.585 106.9 144.31 107.51 144.24 108.29H149.43ZM156.647 104.63C157.647 104.63 158.457 104.935 159.077 105.545C159.697 106.145 160.007 107.015 160.007 108.155V113H158.657V108.35C158.657 107.53 158.452 106.905 158.042 106.475C157.632 106.035 157.072 105.815 156.362 105.815C155.642 105.815 155.067 106.04 154.637 106.49C154.217 106.94 154.007 107.595 154.007 108.455V113H152.642V104.78H154.007V105.95C154.277 105.53 154.642 105.205 155.102 104.975C155.572 104.745 156.087 104.63 156.647 104.63ZM161.727 108.875C161.727 108.025 161.897 107.285 162.237 106.655C162.577 106.015 163.047 105.52 163.647 105.17C164.257 104.82 164.952 104.645 165.732 104.645C166.742 104.645 167.572 104.89 168.222 105.38C168.882 105.87 169.317 106.55 169.527 107.42H168.057C167.917 106.92 167.642 106.525 167.232 106.235C166.832 105.945 166.332 105.8 165.732 105.8C164.952 105.8 164.322 106.07 163.842 106.61C163.362 107.14 163.122 107.895 163.122 108.875C163.122 109.865 163.362 110.63 163.842 111.17C164.322 111.71 164.952 111.98 165.732 111.98C166.332 111.98 166.832 111.84 167.232 111.56C167.632 111.28 167.907 110.88 168.057 110.36H169.527C169.307 111.2 168.867 111.875 168.207 112.385C167.547 112.885 166.722 113.135 165.732 113.135C164.952 113.135 164.257 112.96 163.647 112.61C163.047 112.26 162.577 111.765 162.237 111.125C161.897 110.485 161.727 109.735 161.727 108.875ZM178.848 108.575C178.848 108.835 178.833 109.11 178.803 109.4H172.233C172.283 110.21 172.558 110.845 173.058 111.305C173.568 111.755 174.183 111.98 174.903 111.98C175.493 111.98 175.983 111.845 176.373 111.575C176.773 111.295 177.053 110.925 177.213 110.465H178.683C178.463 111.255 178.023 111.9 177.363 112.4C176.703 112.89 175.883 113.135 174.903 113.135C174.123 113.135 173.423 112.96 172.803 112.61C172.193 112.26 171.713 111.765 171.363 111.125C171.013 110.475 170.838 109.725 170.838 108.875C170.838 108.025 171.008 107.28 171.348 106.64C171.688 106 172.163 105.51 172.773 105.17C173.393 104.82 174.103 104.645 174.903 104.645C175.683 104.645 176.373 104.815 176.973 105.155C177.573 105.495 178.033 105.965 178.353 106.565C178.683 107.155 178.848 107.825 178.848 108.575ZM177.438 108.29C177.438 107.77 177.323 107.325 177.093 106.955C176.863 106.575 176.548 106.29 176.148 106.1C175.758 105.9 175.323 105.8 174.843 105.8C174.153 105.8 173.563 106.02 173.073 106.46C172.593 106.9 172.318 107.51 172.248 108.29H177.438ZM184.04 104.645C184.75 104.645 185.37 104.8 185.9 105.11C186.44 105.42 186.84 105.81 187.1 106.28V104.78H188.48V113.18C188.48 113.93 188.32 114.595 188 115.175C187.68 115.765 187.22 116.225 186.62 116.555C186.03 116.885 185.34 117.05 184.55 117.05C183.47 117.05 182.57 116.795 181.85 116.285C181.13 115.775 180.705 115.08 180.575 114.2H181.925C182.075 114.7 182.385 115.1 182.855 115.4C183.325 115.71 183.89 115.865 184.55 115.865C185.3 115.865 185.91 115.63 186.38 115.16C186.86 114.69 187.1 114.03 187.1 113.18V111.455C186.83 111.935 186.43 112.335 185.9 112.655C185.37 112.975 184.75 113.135 184.04 113.135C183.31 113.135 182.645 112.955 182.045 112.595C181.455 112.235 180.99 111.73 180.65 111.08C180.31 110.43 180.14 109.69 180.14 108.86C180.14 108.02 180.31 107.285 180.65 106.655C180.99 106.015 181.455 105.52 182.045 105.17C182.645 104.82 183.31 104.645 184.04 104.645ZM187.1 108.875C187.1 108.255 186.975 107.715 186.725 107.255C186.475 106.795 186.135 106.445 185.705 106.205C185.285 105.955 184.82 105.83 184.31 105.83C183.8 105.83 183.335 105.95 182.915 106.19C182.495 106.43 182.16 106.78 181.91 107.24C181.66 107.7 181.535 108.24 181.535 108.86C181.535 109.49 181.66 110.04 181.91 110.51C182.16 110.97 182.495 111.325 182.915 111.575C183.335 111.815 183.8 111.935 184.31 111.935C184.82 111.935 185.285 111.815 185.705 111.575C186.135 111.325 186.475 110.97 186.725 110.51C186.975 110.04 187.1 109.495 187.1 108.875ZM190.276 108.86C190.276 108.02 190.446 107.285 190.786 106.655C191.126 106.015 191.591 105.52 192.181 105.17C192.781 104.82 193.446 104.645 194.176 104.645C194.896 104.645 195.521 104.8 196.051 105.11C196.581 105.42 196.976 105.81 197.236 106.28V104.78H198.616V113H197.236V111.47C196.966 111.95 196.561 112.35 196.021 112.67C195.491 112.98 194.871 113.135 194.161 113.135C193.431 113.135 192.771 112.955 192.181 112.595C191.591 112.235 191.126 111.73 190.786 111.08C190.446 110.43 190.276 109.69 190.276 108.86ZM197.236 108.875C197.236 108.255 197.111 107.715 196.861 107.255C196.611 106.795 196.271 106.445 195.841 106.205C195.421 105.955 194.956 105.83 194.446 105.83C193.936 105.83 193.471 105.95 193.051 106.19C192.631 106.43 192.296 106.78 192.046 107.24C191.796 107.7 191.671 108.24 191.671 108.86C191.671 109.49 191.796 110.04 192.046 110.51C192.296 110.97 192.631 111.325 193.051 111.575C193.471 111.815 193.936 111.935 194.446 111.935C194.956 111.935 195.421 111.815 195.841 111.575C196.271 111.325 196.611 110.97 196.861 110.51C197.111 110.04 197.236 109.495 197.236 108.875ZM205.003 104.63C205.623 104.63 206.183 104.765 206.683 105.035C207.183 105.295 207.573 105.69 207.853 106.22C208.143 106.75 208.288 107.395 208.288 108.155V113H206.938V108.35C206.938 107.53 206.733 106.905 206.323 106.475C205.913 106.035 205.353 105.815 204.643 105.815C203.923 105.815 203.348 106.04 202.918 106.49C202.498 106.94 202.288 107.595 202.288 108.455V113H200.923V101.9H202.288V105.95C202.558 105.53 202.928 105.205 203.398 104.975C203.878 104.745 204.413 104.63 205.003 104.63ZM214.007 108.86C214.007 108.02 214.177 107.285 214.517 106.655C214.857 106.015 215.322 105.52 215.912 105.17C216.512 104.82 217.182 104.645 217.922 104.645C218.562 104.645 219.157 104.795 219.707 105.095C220.257 105.385 220.677 105.77 220.967 106.25V101.9H222.347V113H220.967V111.455C220.697 111.945 220.297 112.35 219.767 112.67C219.237 112.98 218.617 113.135 217.907 113.135C217.177 113.135 216.512 112.955 215.912 112.595C215.322 112.235 214.857 111.73 214.517 111.08C214.177 110.43 214.007 109.69 214.007 108.86ZM220.967 108.875C220.967 108.255 220.842 107.715 220.592 107.255C220.342 106.795 220.002 106.445 219.572 106.205C219.152 105.955 218.687 105.83 218.177 105.83C217.667 105.83 217.202 105.95 216.782 106.19C216.362 106.43 216.027 106.78 215.777 107.24C215.527 107.7 215.402 108.24 215.402 108.86C215.402 109.49 215.527 110.04 215.777 110.51C216.027 110.97 216.362 111.325 216.782 111.575C217.202 111.815 217.667 111.935 218.177 111.935C218.687 111.935 219.152 111.815 219.572 111.575C220.002 111.325 220.342 110.97 220.592 110.51C220.842 110.04 220.967 109.495 220.967 108.875ZM224.144 108.86C224.144 108.02 224.314 107.285 224.654 106.655C224.994 106.015 225.459 105.52 226.049 105.17C226.649 104.82 227.314 104.645 228.044 104.645C228.764 104.645 229.389 104.8 229.919 105.11C230.449 105.42 230.844 105.81 231.104 106.28V104.78H232.484V113H231.104V111.47C230.834 111.95 230.429 112.35 229.889 112.67C229.359 112.98 228.739 113.135 228.029 113.135C227.299 113.135 226.639 112.955 226.049 112.595C225.459 112.235 224.994 111.73 224.654 111.08C224.314 110.43 224.144 109.69 224.144 108.86ZM231.104 108.875C231.104 108.255 230.979 107.715 230.729 107.255C230.479 106.795 230.139 106.445 229.709 106.205C229.289 105.955 228.824 105.83 228.314 105.83C227.804 105.83 227.339 105.95 226.919 106.19C226.499 106.43 226.164 106.78 225.914 107.24C225.664 107.7 225.539 108.24 225.539 108.86C225.539 109.49 225.664 110.04 225.914 110.51C226.164 110.97 226.499 111.325 226.919 111.575C227.339 111.815 227.804 111.935 228.314 111.935C228.824 111.935 229.289 111.815 229.709 111.575C230.139 111.325 230.479 110.97 230.729 110.51C230.979 110.04 231.104 109.495 231.104 108.875ZM238.795 104.63C239.795 104.63 240.605 104.935 241.225 105.545C241.845 106.145 242.155 107.015 242.155 108.155V113H240.805V108.35C240.805 107.53 240.6 106.905 240.19 106.475C239.78 106.035 239.22 105.815 238.51 105.815C237.79 105.815 237.215 106.04 236.785 106.49C236.365 106.94 236.155 107.595 236.155 108.455V113H234.79V104.78H236.155V105.95C236.425 105.53 236.79 105.205 237.25 104.975C237.72 104.745 238.235 104.63 238.795 104.63ZM258.269 104.63C258.909 104.63 259.479 104.765 259.979 105.035C260.479 105.295 260.874 105.69 261.164 106.22C261.454 106.75 261.599 107.395 261.599 108.155V113H260.249V108.35C260.249 107.53 260.044 106.905 259.634 106.475C259.234 106.035 258.689 105.815 257.999 105.815C257.289 105.815 256.724 106.045 256.304 106.505C255.884 106.955 255.674 107.61 255.674 108.47V113H254.324V108.35C254.324 107.53 254.119 106.905 253.709 106.475C253.309 106.035 252.764 105.815 252.074 105.815C251.364 105.815 250.799 106.045 250.379 106.505C249.959 106.955 249.749 107.61 249.749 108.47V113H248.384V104.78H249.749V105.965C250.019 105.535 250.379 105.205 250.829 104.975C251.289 104.745 251.794 104.63 252.344 104.63C253.034 104.63 253.644 104.785 254.174 105.095C254.704 105.405 255.099 105.86 255.359 106.46C255.589 105.88 255.969 105.43 256.499 105.11C257.029 104.79 257.619 104.63 258.269 104.63ZM271.338 108.575C271.338 108.835 271.323 109.11 271.293 109.4H264.723C264.773 110.21 265.048 110.845 265.548 111.305C266.058 111.755 266.673 111.98 267.393 111.98C267.983 111.98 268.473 111.845 268.863 111.575C269.263 111.295 269.543 110.925 269.703 110.465H271.173C270.953 111.255 270.513 111.9 269.853 112.4C269.193 112.89 268.373 113.135 267.393 113.135C266.613 113.135 265.913 112.96 265.293 112.61C264.683 112.26 264.203 111.765 263.853 111.125C263.503 110.475 263.328 109.725 263.328 108.875C263.328 108.025 263.498 107.28 263.838 106.64C264.178 106 264.653 105.51 265.263 105.17C265.883 104.82 266.593 104.645 267.393 104.645C268.173 104.645 268.863 104.815 269.463 105.155C270.063 105.495 270.523 105.965 270.843 106.565C271.173 107.155 271.338 107.825 271.338 108.575ZM269.928 108.29C269.928 107.77 269.813 107.325 269.583 106.955C269.353 106.575 269.038 106.29 268.638 106.1C268.248 105.9 267.813 105.8 267.333 105.8C266.643 105.8 266.053 106.02 265.563 106.46C265.083 106.9 264.808 107.51 264.738 108.29H269.928ZM277.145 104.63C278.145 104.63 278.955 104.935 279.575 105.545C280.195 106.145 280.505 107.015 280.505 108.155V113H279.155V108.35C279.155 107.53 278.95 106.905 278.54 106.475C278.13 106.035 277.57 105.815 276.86 105.815C276.14 105.815 275.565 106.04 275.135 106.49C274.715 106.94 274.505 107.595 274.505 108.455V113H273.14V104.78H274.505V105.95C274.775 105.53 275.14 105.205 275.6 104.975C276.07 104.745 276.585 104.63 277.145 104.63ZM282.225 108.86C282.225 108.02 282.395 107.285 282.735 106.655C283.075 106.015 283.54 105.52 284.13 105.17C284.73 104.82 285.395 104.645 286.125 104.645C286.845 104.645 287.47 104.8 288 105.11C288.53 105.42 288.925 105.81 289.185 106.28V104.78H290.565V113H289.185V111.47C288.915 111.95 288.51 112.35 287.97 112.67C287.44 112.98 286.82 113.135 286.11 113.135C285.38 113.135 284.72 112.955 284.13 112.595C283.54 112.235 283.075 111.73 282.735 111.08C282.395 110.43 282.225 109.69 282.225 108.86ZM289.185 108.875C289.185 108.255 289.06 107.715 288.81 107.255C288.56 106.795 288.22 106.445 287.79 106.205C287.37 105.955 286.905 105.83 286.395 105.83C285.885 105.83 285.42 105.95 285 106.19C284.58 106.43 284.245 106.78 283.995 107.24C283.745 107.7 283.62 108.24 283.62 108.86C283.62 109.49 283.745 110.04 283.995 110.51C284.245 110.97 284.58 111.325 285 111.575C285.42 111.815 285.885 111.935 286.395 111.935C286.905 111.935 287.37 111.815 287.79 111.575C288.22 111.325 288.56 110.97 288.81 110.51C289.06 110.04 289.185 109.495 289.185 108.875ZM296.876 104.63C297.876 104.63 298.686 104.935 299.306 105.545C299.926 106.145 300.236 107.015 300.236 108.155V113H298.886V108.35C298.886 107.53 298.681 106.905 298.271 106.475C297.861 106.035 297.301 105.815 296.591 105.815C295.871 105.815 295.296 106.04 294.866 106.49C294.446 106.94 294.236 107.595 294.236 108.455V113H292.871V104.78H294.236V105.95C294.506 105.53 294.871 105.205 295.331 104.975C295.801 104.745 296.316 104.63 296.876 104.63ZM305.856 104.645C306.566 104.645 307.186 104.8 307.716 105.11C308.256 105.42 308.656 105.81 308.916 106.28V104.78H310.296V113.18C310.296 113.93 310.136 114.595 309.816 115.175C309.496 115.765 309.036 116.225 308.436 116.555C307.846 116.885 307.156 117.05 306.366 117.05C305.286 117.05 304.386 116.795 303.666 116.285C302.946 115.775 302.521 115.08 302.391 114.2H303.741C303.891 114.7 304.201 115.1 304.671 115.4C305.141 115.71 305.706 115.865 306.366 115.865C307.116 115.865 307.726 115.63 308.196 115.16C308.676 114.69 308.916 114.03 308.916 113.18V111.455C308.646 111.935 308.246 112.335 307.716 112.655C307.186 112.975 306.566 113.135 305.856 113.135C305.126 113.135 304.461 112.955 303.861 112.595C303.271 112.235 302.806 111.73 302.466 111.08C302.126 110.43 301.956 109.69 301.956 108.86C301.956 108.02 302.126 107.285 302.466 106.655C302.806 106.015 303.271 105.52 303.861 105.17C304.461 104.82 305.126 104.645 305.856 104.645ZM308.916 108.875C308.916 108.255 308.791 107.715 308.541 107.255C308.291 106.795 307.951 106.445 307.521 106.205C307.101 105.955 306.636 105.83 306.126 105.83C305.616 105.83 305.151 105.95 304.731 106.19C304.311 106.43 303.976 106.78 303.726 107.24C303.476 107.7 303.351 108.24 303.351 108.86C303.351 109.49 303.476 110.04 303.726 110.51C303.976 110.97 304.311 111.325 304.731 111.575C305.151 111.815 305.616 111.935 306.126 111.935C306.636 111.935 307.101 111.815 307.521 111.575C307.951 111.325 308.291 110.97 308.541 110.51C308.791 110.04 308.916 109.495 308.916 108.875ZM312.093 108.86C312.093 108.02 312.263 107.285 312.603 106.655C312.943 106.015 313.408 105.52 313.998 105.17C314.598 104.82 315.263 104.645 315.993 104.645C316.713 104.645 317.338 104.8 317.868 105.11C318.398 105.42 318.793 105.81 319.053 106.28V104.78H320.433V113H319.053V111.47C318.783 111.95 318.378 112.35 317.838 112.67C317.308 112.98 316.688 113.135 315.978 113.135C315.248 113.135 314.588 112.955 313.998 112.595C313.408 112.235 312.943 111.73 312.603 111.08C312.263 110.43 312.093 109.69 312.093 108.86ZM319.053 108.875C319.053 108.255 318.928 107.715 318.678 107.255C318.428 106.795 318.088 106.445 317.658 106.205C317.238 105.955 316.773 105.83 316.263 105.83C315.753 105.83 315.288 105.95 314.868 106.19C314.448 106.43 314.113 106.78 313.863 107.24C313.613 107.7 313.488 108.24 313.488 108.86C313.488 109.49 313.613 110.04 313.863 110.51C314.113 110.97 314.448 111.325 314.868 111.575C315.288 111.815 315.753 111.935 316.263 111.935C316.773 111.935 317.238 111.815 317.658 111.575C318.088 111.325 318.428 110.97 318.678 110.51C318.928 110.04 319.053 109.495 319.053 108.875ZM326.744 104.63C327.744 104.63 328.554 104.935 329.174 105.545C329.794 106.145 330.104 107.015 330.104 108.155V113H328.754V108.35C328.754 107.53 328.549 106.905 328.139 106.475C327.729 106.035 327.169 105.815 326.459 105.815C325.739 105.815 325.164 106.04 324.734 106.49C324.314 106.94 324.104 107.595 324.104 108.455V113H322.739V104.78H324.104V105.95C324.374 105.53 324.739 105.205 325.199 104.975C325.669 104.745 326.184 104.63 326.744 104.63ZM333.039 103.445C332.779 103.445 332.559 103.355 332.379 103.175C332.199 102.995 332.109 102.775 332.109 102.515C332.109 102.255 332.199 102.035 332.379 101.855C332.559 101.675 332.779 101.585 333.039 101.585C333.289 101.585 333.499 101.675 333.669 101.855C333.849 102.035 333.939 102.255 333.939 102.515C333.939 102.775 333.849 102.995 333.669 103.175C333.499 103.355 333.289 103.445 333.039 103.445ZM333.699 104.78V113H332.334V104.78H333.699ZM111.175 130.765C111.175 129.745 111.405 128.83 111.865 128.02C112.325 127.2 112.95 126.56 113.74 126.1C114.54 125.64 115.425 125.41 116.395 125.41C117.535 125.41 118.53 125.685 119.38 126.235C120.23 126.785 120.85 127.565 121.24 128.575H119.605C119.315 127.945 118.895 127.46 118.345 127.12C117.805 126.78 117.155 126.61 116.395 126.61C115.665 126.61 115.01 126.78 114.43 127.12C113.85 127.46 113.395 127.945 113.065 128.575C112.735 129.195 112.57 129.925 112.57 130.765C112.57 131.595 112.735 132.325 113.065 132.955C113.395 133.575 113.85 134.055 114.43 134.395C115.01 134.735 115.665 134.905 116.395 134.905C117.155 134.905 117.805 134.74 118.345 134.41C118.895 134.07 119.315 133.585 119.605 132.955H121.24C120.85 133.955 120.23 134.73 119.38 135.28C118.53 135.82 117.535 136.09 116.395 136.09C115.425 136.09 114.54 135.865 113.74 135.415C112.95 134.955 112.325 134.32 111.865 133.51C111.405 132.7 111.175 131.785 111.175 130.765ZM126.857 136.135C126.087 136.135 125.387 135.96 124.757 135.61C124.137 135.26 123.647 134.765 123.287 134.125C122.937 133.475 122.762 132.725 122.762 131.875C122.762 131.035 122.942 130.295 123.302 129.655C123.672 129.005 124.172 128.51 124.802 128.17C125.432 127.82 126.137 127.645 126.917 127.645C127.697 127.645 128.402 127.82 129.032 128.17C129.662 128.51 130.157 129 130.517 129.64C130.887 130.28 131.072 131.025 131.072 131.875C131.072 132.725 130.882 133.475 130.502 134.125C130.132 134.765 129.627 135.26 128.987 135.61C128.347 135.96 127.637 136.135 126.857 136.135ZM126.857 134.935C127.347 134.935 127.807 134.82 128.237 134.59C128.667 134.36 129.012 134.015 129.272 133.555C129.542 133.095 129.677 132.535 129.677 131.875C129.677 131.215 129.547 130.655 129.287 130.195C129.027 129.735 128.687 129.395 128.267 129.175C127.847 128.945 127.392 128.83 126.902 128.83C126.402 128.83 125.942 128.945 125.522 129.175C125.112 129.395 124.782 129.735 124.532 130.195C124.282 130.655 124.157 131.215 124.157 131.875C124.157 132.545 124.277 133.11 124.517 133.57C124.767 134.03 125.097 134.375 125.507 134.605C125.917 134.825 126.367 134.935 126.857 134.935ZM134.231 129.115C134.471 128.645 134.811 128.28 135.251 128.02C135.701 127.76 136.246 127.63 136.886 127.63V129.04H136.526C134.996 129.04 134.231 129.87 134.231 131.53V136H132.866V127.78H134.231V129.115ZM142.047 136.135C141.277 136.135 140.577 135.96 139.947 135.61C139.327 135.26 138.837 134.765 138.477 134.125C138.127 133.475 137.952 132.725 137.952 131.875C137.952 131.035 138.132 130.295 138.492 129.655C138.862 129.005 139.362 128.51 139.992 128.17C140.622 127.82 141.327 127.645 142.107 127.645C142.887 127.645 143.592 127.82 144.222 128.17C144.852 128.51 145.347 129 145.707 129.64C146.077 130.28 146.262 131.025 146.262 131.875C146.262 132.725 146.072 133.475 145.692 134.125C145.322 134.765 144.817 135.26 144.177 135.61C143.537 135.96 142.827 136.135 142.047 136.135ZM142.047 134.935C142.537 134.935 142.997 134.82 143.427 134.59C143.857 134.36 144.202 134.015 144.462 133.555C144.732 133.095 144.867 132.535 144.867 131.875C144.867 131.215 144.737 130.655 144.477 130.195C144.217 129.735 143.877 129.395 143.457 129.175C143.037 128.945 142.582 128.83 142.092 128.83C141.592 128.83 141.132 128.945 140.712 129.175C140.302 129.395 139.972 129.735 139.722 130.195C139.472 130.655 139.347 131.215 139.347 131.875C139.347 132.545 139.467 133.11 139.707 133.57C139.957 134.03 140.287 134.375 140.697 134.605C141.107 134.825 141.557 134.935 142.047 134.935ZM152.062 127.63C153.062 127.63 153.872 127.935 154.492 128.545C155.112 129.145 155.422 130.015 155.422 131.155V136H154.072V131.35C154.072 130.53 153.867 129.905 153.457 129.475C153.047 129.035 152.487 128.815 151.777 128.815C151.057 128.815 150.482 129.04 150.052 129.49C149.632 129.94 149.422 130.595 149.422 131.455V136H148.057V127.78H149.422V128.95C149.692 128.53 150.057 128.205 150.517 127.975C150.987 127.745 151.502 127.63 152.062 127.63ZM157.142 131.86C157.142 131.02 157.312 130.285 157.652 129.655C157.992 129.015 158.457 128.52 159.047 128.17C159.647 127.82 160.312 127.645 161.042 127.645C161.762 127.645 162.387 127.8 162.917 128.11C163.447 128.42 163.842 128.81 164.102 129.28V127.78H165.482V136H164.102V134.47C163.832 134.95 163.427 135.35 162.887 135.67C162.357 135.98 161.737 136.135 161.027 136.135C160.297 136.135 159.637 135.955 159.047 135.595C158.457 135.235 157.992 134.73 157.652 134.08C157.312 133.43 157.142 132.69 157.142 131.86ZM164.102 131.875C164.102 131.255 163.977 130.715 163.727 130.255C163.477 129.795 163.137 129.445 162.707 129.205C162.287 128.955 161.822 128.83 161.312 128.83C160.802 128.83 160.337 128.95 159.917 129.19C159.497 129.43 159.162 129.78 158.912 130.24C158.662 130.7 158.537 131.24 158.537 131.86C158.537 132.49 158.662 133.04 158.912 133.51C159.162 133.97 159.497 134.325 159.917 134.575C160.337 134.815 160.802 134.935 161.312 134.935C161.822 134.935 162.287 134.815 162.707 134.575C163.137 134.325 163.477 133.97 163.727 133.51C163.977 133.04 164.102 132.495 164.102 131.875ZM170.848 134.74L173.398 127.78H174.853L171.628 136H170.038L166.813 127.78H168.283L170.848 134.74ZM176.902 126.445C176.642 126.445 176.422 126.355 176.242 126.175C176.062 125.995 175.972 125.775 175.972 125.515C175.972 125.255 176.062 125.035 176.242 124.855C176.422 124.675 176.642 124.585 176.902 124.585C177.152 124.585 177.362 124.675 177.532 124.855C177.712 125.035 177.802 125.255 177.802 125.515C177.802 125.775 177.712 125.995 177.532 126.175C177.362 126.355 177.152 126.445 176.902 126.445ZM177.562 127.78V136H176.197V127.78H177.562ZM181.253 129.115C181.493 128.645 181.833 128.28 182.273 128.02C182.723 127.76 183.268 127.63 183.908 127.63V129.04H183.548C182.018 129.04 181.253 129.87 181.253 131.53V136H179.888V127.78H181.253V129.115ZM192.774 127.78V136H191.409V134.785C191.149 135.205 190.784 135.535 190.314 135.775C189.854 136.005 189.344 136.12 188.784 136.12C188.144 136.12 187.569 135.99 187.059 135.73C186.549 135.46 186.144 135.06 185.844 134.53C185.554 134 185.409 133.355 185.409 132.595V127.78H186.759V132.415C186.759 133.225 186.964 133.85 187.374 134.29C187.784 134.72 188.344 134.935 189.054 134.935C189.784 134.935 190.359 134.71 190.779 134.26C191.199 133.81 191.409 133.155 191.409 132.295V127.78H192.774ZM197.988 136.135C197.358 136.135 196.793 136.03 196.293 135.82C195.793 135.6 195.398 135.3 195.108 134.92C194.818 134.53 194.658 134.085 194.628 133.585H196.038C196.078 133.995 196.268 134.33 196.608 134.59C196.958 134.85 197.413 134.98 197.973 134.98C198.493 134.98 198.903 134.865 199.203 134.635C199.503 134.405 199.653 134.115 199.653 133.765C199.653 133.405 199.493 133.14 199.173 132.97C198.853 132.79 198.358 132.615 197.688 132.445C197.078 132.285 196.578 132.125 196.188 131.965C195.808 131.795 195.478 131.55 195.198 131.23C194.928 130.9 194.793 130.47 194.793 129.94C194.793 129.52 194.918 129.135 195.168 128.785C195.418 128.435 195.773 128.16 196.233 127.96C196.693 127.75 197.218 127.645 197.808 127.645C198.718 127.645 199.453 127.875 200.013 128.335C200.573 128.795 200.873 129.425 200.913 130.225H199.548C199.518 129.795 199.343 129.45 199.023 129.19C198.713 128.93 198.293 128.8 197.763 128.8C197.273 128.8 196.883 128.905 196.593 129.115C196.303 129.325 196.158 129.6 196.158 129.94C196.158 130.21 196.243 130.435 196.413 130.615C196.593 130.785 196.813 130.925 197.073 131.035C197.343 131.135 197.713 131.25 198.183 131.38C198.773 131.54 199.253 131.7 199.623 131.86C199.993 132.01 200.308 132.24 200.568 132.55C200.838 132.86 200.978 133.265 200.988 133.765C200.988 134.215 200.863 134.62 200.613 134.98C200.363 135.34 200.008 135.625 199.548 135.835C199.098 136.035 198.578 136.135 197.988 136.135ZM210.169 125.545C211.309 125.545 212.294 125.76 213.124 126.19C213.964 126.61 214.604 127.215 215.044 128.005C215.494 128.795 215.719 129.725 215.719 130.795C215.719 131.865 215.494 132.795 215.044 133.585C214.604 134.365 213.964 134.965 213.124 135.385C212.294 135.795 211.309 136 210.169 136H206.914V125.545H210.169ZM210.169 134.875C211.519 134.875 212.549 134.52 213.259 133.81C213.969 133.09 214.324 132.085 214.324 130.795C214.324 129.495 213.964 128.48 213.244 127.75C212.534 127.02 211.509 126.655 210.169 126.655H208.279V134.875H210.169ZM218.225 126.445C217.965 126.445 217.745 126.355 217.565 126.175C217.385 125.995 217.295 125.775 217.295 125.515C217.295 125.255 217.385 125.035 217.565 124.855C217.745 124.675 217.965 124.585 218.225 124.585C218.475 124.585 218.685 124.675 218.855 124.855C219.035 125.035 219.125 125.255 219.125 125.515C219.125 125.775 219.035 125.995 218.855 126.175C218.685 126.355 218.475 126.445 218.225 126.445ZM218.885 127.78V136H217.52V127.78H218.885ZM224.121 136.135C223.491 136.135 222.926 136.03 222.426 135.82C221.926 135.6 221.531 135.3 221.241 134.92C220.951 134.53 220.791 134.085 220.761 133.585H222.171C222.211 133.995 222.401 134.33 222.741 134.59C223.091 134.85 223.546 134.98 224.106 134.98C224.626 134.98 225.036 134.865 225.336 134.635C225.636 134.405 225.786 134.115 225.786 133.765C225.786 133.405 225.626 133.14 225.306 132.97C224.986 132.79 224.491 132.615 223.821 132.445C223.211 132.285 222.711 132.125 222.321 131.965C221.941 131.795 221.611 131.55 221.331 131.23C221.061 130.9 220.926 130.47 220.926 129.94C220.926 129.52 221.051 129.135 221.301 128.785C221.551 128.435 221.906 128.16 222.366 127.96C222.826 127.75 223.351 127.645 223.941 127.645C224.851 127.645 225.586 127.875 226.146 128.335C226.706 128.795 227.006 129.425 227.046 130.225H225.681C225.651 129.795 225.476 129.45 225.156 129.19C224.846 128.93 224.426 128.8 223.896 128.8C223.406 128.8 223.016 128.905 222.726 129.115C222.436 129.325 222.291 129.6 222.291 129.94C222.291 130.21 222.376 130.435 222.546 130.615C222.726 130.785 222.946 130.925 223.206 131.035C223.476 131.135 223.846 131.25 224.316 131.38C224.906 131.54 225.386 131.7 225.756 131.86C226.126 132.01 226.441 132.24 226.701 132.55C226.971 132.86 227.111 133.265 227.121 133.765C227.121 134.215 226.996 134.62 226.746 134.98C226.496 135.34 226.141 135.625 225.681 135.835C225.231 136.035 224.711 136.135 224.121 136.135ZM236.548 131.575C236.548 131.835 236.533 132.11 236.503 132.4H229.933C229.983 133.21 230.258 133.845 230.758 134.305C231.268 134.755 231.883 134.98 232.603 134.98C233.193 134.98 233.683 134.845 234.073 134.575C234.473 134.295 234.753 133.925 234.913 133.465H236.383C236.163 134.255 235.723 134.9 235.063 135.4C234.403 135.89 233.583 136.135 232.603 136.135C231.823 136.135 231.123 135.96 230.503 135.61C229.893 135.26 229.413 134.765 229.063 134.125C228.713 133.475 228.538 132.725 228.538 131.875C228.538 131.025 228.708 130.28 229.048 129.64C229.388 129 229.863 128.51 230.473 128.17C231.093 127.82 231.803 127.645 232.603 127.645C233.383 127.645 234.073 127.815 234.673 128.155C235.273 128.495 235.733 128.965 236.053 129.565C236.383 130.155 236.548 130.825 236.548 131.575ZM235.138 131.29C235.138 130.77 235.023 130.325 234.793 129.955C234.563 129.575 234.248 129.29 233.848 129.1C233.458 128.9 233.023 128.8 232.543 128.8C231.853 128.8 231.263 129.02 230.773 129.46C230.293 129.9 230.018 130.51 229.948 131.29H235.138ZM237.84 131.86C237.84 131.02 238.01 130.285 238.35 129.655C238.69 129.015 239.155 128.52 239.745 128.17C240.345 127.82 241.01 127.645 241.74 127.645C242.46 127.645 243.085 127.8 243.615 128.11C244.145 128.42 244.54 128.81 244.8 129.28V127.78H246.18V136H244.8V134.47C244.53 134.95 244.125 135.35 243.585 135.67C243.055 135.98 242.435 136.135 241.725 136.135C240.995 136.135 240.335 135.955 239.745 135.595C239.155 135.235 238.69 134.73 238.35 134.08C238.01 133.43 237.84 132.69 237.84 131.86ZM244.8 131.875C244.8 131.255 244.675 130.715 244.425 130.255C244.175 129.795 243.835 129.445 243.405 129.205C242.985 128.955 242.52 128.83 242.01 128.83C241.5 128.83 241.035 128.95 240.615 129.19C240.195 129.43 239.86 129.78 239.61 130.24C239.36 130.7 239.235 131.24 239.235 131.86C239.235 132.49 239.36 133.04 239.61 133.51C239.86 133.97 240.195 134.325 240.615 134.575C241.035 134.815 241.5 134.935 242.01 134.935C242.52 134.935 242.985 134.815 243.405 134.575C243.835 134.325 244.175 133.97 244.425 133.51C244.675 133.04 244.8 132.495 244.8 131.875ZM251.397 136.135C250.767 136.135 250.202 136.03 249.702 135.82C249.202 135.6 248.807 135.3 248.517 134.92C248.227 134.53 248.067 134.085 248.037 133.585H249.447C249.487 133.995 249.677 134.33 250.017 134.59C250.367 134.85 250.822 134.98 251.382 134.98C251.902 134.98 252.312 134.865 252.612 134.635C252.912 134.405 253.062 134.115 253.062 133.765C253.062 133.405 252.902 133.14 252.582 132.97C252.262 132.79 251.767 132.615 251.097 132.445C250.487 132.285 249.987 132.125 249.597 131.965C249.217 131.795 248.887 131.55 248.607 131.23C248.337 130.9 248.202 130.47 248.202 129.94C248.202 129.52 248.327 129.135 248.577 128.785C248.827 128.435 249.182 128.16 249.642 127.96C250.102 127.75 250.627 127.645 251.217 127.645C252.127 127.645 252.862 127.875 253.422 128.335C253.982 128.795 254.282 129.425 254.322 130.225H252.957C252.927 129.795 252.752 129.45 252.432 129.19C252.122 128.93 251.702 128.8 251.172 128.8C250.682 128.8 250.292 128.905 250.002 129.115C249.712 129.325 249.567 129.6 249.567 129.94C249.567 130.21 249.652 130.435 249.822 130.615C250.002 130.785 250.222 130.925 250.482 131.035C250.752 131.135 251.122 131.25 251.592 131.38C252.182 131.54 252.662 131.7 253.032 131.86C253.402 132.01 253.717 132.24 253.977 132.55C254.247 132.86 254.387 133.265 254.397 133.765C254.397 134.215 254.272 134.62 254.022 134.98C253.772 135.34 253.417 135.625 252.957 135.835C252.507 136.035 251.987 136.135 251.397 136.135ZM263.823 131.575C263.823 131.835 263.808 132.11 263.778 132.4H257.208C257.258 133.21 257.533 133.845 258.033 134.305C258.543 134.755 259.158 134.98 259.878 134.98C260.468 134.98 260.958 134.845 261.348 134.575C261.748 134.295 262.028 133.925 262.188 133.465H263.658C263.438 134.255 262.998 134.9 262.338 135.4C261.678 135.89 260.858 136.135 259.878 136.135C259.098 136.135 258.398 135.96 257.778 135.61C257.168 135.26 256.688 134.765 256.338 134.125C255.988 133.475 255.813 132.725 255.813 131.875C255.813 131.025 255.983 130.28 256.323 129.64C256.663 129 257.138 128.51 257.748 128.17C258.368 127.82 259.078 127.645 259.878 127.645C260.658 127.645 261.348 127.815 261.948 128.155C262.548 128.495 263.008 128.965 263.328 129.565C263.658 130.155 263.823 130.825 263.823 131.575ZM262.413 131.29C262.413 130.77 262.298 130.325 262.068 129.955C261.838 129.575 261.523 129.29 261.123 129.1C260.733 128.9 260.298 128.8 259.818 128.8C259.128 128.8 258.538 129.02 258.048 129.46C257.568 129.9 257.293 130.51 257.223 131.29H262.413Z" fill="#6F7FAF"/>
<path d="M110.455 21.2C110.455 19.2773 110.884 17.56 111.743 16.048C112.62 14.5173 113.805 13.332 115.299 12.492C116.811 11.6333 118.5 11.204 120.367 11.204C122.551 11.204 124.464 11.764 126.107 12.884C127.749 14.004 128.897 15.5533 129.551 17.532H125.043C124.595 16.5987 123.96 15.8987 123.139 15.432C122.336 14.9653 121.403 14.732 120.339 14.732C119.2 14.732 118.183 15.0027 117.287 15.544C116.409 16.0667 115.719 16.8133 115.215 17.784C114.729 18.7547 114.487 19.8933 114.487 21.2C114.487 22.488 114.729 23.6267 115.215 24.616C115.719 25.5867 116.409 26.3427 117.287 26.884C118.183 27.4067 119.2 27.668 120.339 27.668C121.403 27.668 122.336 27.4347 123.139 26.968C123.96 26.4827 124.595 25.7733 125.043 24.84H129.551C128.897 26.8373 127.749 28.396 126.107 29.516C124.483 30.6173 122.569 31.168 120.367 31.168C118.5 31.168 116.811 30.748 115.299 29.908C113.805 29.0493 112.62 27.864 111.743 26.352C110.884 24.84 110.455 23.1227 110.455 21.2ZM141.971 31.196C140.141 31.196 138.461 30.7667 136.931 29.908C135.4 29.0493 134.187 27.864 133.291 26.352C132.395 24.8213 131.947 23.0947 131.947 21.172C131.947 19.268 132.395 17.56 133.291 16.048C134.187 14.5173 135.4 13.3227 136.931 12.464C138.461 11.6053 140.141 11.176 141.971 11.176C143.819 11.176 145.499 11.6053 147.011 12.464C148.541 13.3227 149.745 14.5173 150.623 16.048C151.519 17.56 151.967 19.268 151.967 21.172C151.967 23.0947 151.519 24.8213 150.623 26.352C149.745 27.864 148.541 29.0493 147.011 29.908C145.48 30.7667 143.8 31.196 141.971 31.196ZM141.971 27.696C143.147 27.696 144.183 27.4347 145.079 26.912C145.975 26.3707 146.675 25.6053 147.179 24.616C147.683 23.6267 147.935 22.4787 147.935 21.172C147.935 19.8653 147.683 18.7267 147.179 17.756C146.675 16.7667 145.975 16.0107 145.079 15.488C144.183 14.9653 143.147 14.704 141.971 14.704C140.795 14.704 139.749 14.9653 138.835 15.488C137.939 16.0107 137.239 16.7667 136.735 17.756C136.231 18.7267 135.979 19.8653 135.979 21.172C135.979 22.4787 136.231 23.6267 136.735 24.616C137.239 25.6053 137.939 26.3707 138.835 26.912C139.749 27.4347 140.795 27.696 141.971 27.696ZM172.439 11.456L165.271 31H160.511L153.343 11.456H157.543L162.919 26.996L168.267 11.456H172.439ZM186.773 27.276H178.989L177.701 31H173.585L180.613 11.428H185.177L192.205 31H188.061L186.773 27.276ZM185.709 24.14L182.881 15.964L180.053 24.14H185.709ZM208.132 11.456V14.62H202.924V31H199.004V14.62H193.796V11.456H208.132ZM214.913 14.62V19.52H221.493V22.628H214.913V27.808H222.333V31H210.993V11.428H222.333V14.62H214.913ZM224.943 21.2C224.943 19.2773 225.372 17.56 226.231 16.048C227.108 14.5173 228.294 13.332 229.787 12.492C231.299 11.6333 232.988 11.204 234.855 11.204C237.039 11.204 238.952 11.764 240.595 12.884C242.238 14.004 243.386 15.5533 244.039 17.532H239.531C239.083 16.5987 238.448 15.8987 237.627 15.432C236.824 14.9653 235.891 14.732 234.827 14.732C233.688 14.732 232.671 15.0027 231.775 15.544C230.898 16.0667 230.207 16.8133 229.703 17.784C229.218 18.7547 228.975 19.8933 228.975 21.2C228.975 22.488 229.218 23.6267 229.703 24.616C230.207 25.5867 230.898 26.3427 231.775 26.884C232.671 27.4067 233.688 27.668 234.827 27.668C235.891 27.668 236.824 27.4347 237.627 26.968C238.448 26.4827 239.083 25.7733 239.531 24.84H244.039C243.386 26.8373 242.238 28.396 240.595 29.516C238.971 30.6173 237.058 31.168 234.855 31.168C232.988 31.168 231.299 30.748 229.787 29.908C228.294 29.0493 227.108 27.864 226.231 26.352C225.372 24.84 224.943 23.1227 224.943 21.2ZM263.599 11.456V31H259.679V22.684H251.307V31H247.387V11.456H251.307V19.492H259.679V11.456H263.599ZM67.5796 63.2C67.5796 61.2773 68.0089 59.56 68.8676 58.048C69.7449 56.5173 70.9303 55.332 72.4236 54.492C73.9356 53.6333 75.6249 53.204 77.4916 53.204C79.6756 53.204 81.5889 53.764 83.2316 54.884C84.8743 56.004 86.0223 57.5533 86.6756 59.532H82.1676C81.7196 58.5987 81.0849 57.8987 80.2636 57.432C79.4609 56.9653 78.5276 56.732 77.4636 56.732C76.3249 56.732 75.3076 57.0027 74.4116 57.544C73.5343 58.0667 72.8436 58.8133 72.3396 59.784C71.8543 60.7547 71.6116 61.8933 71.6116 63.2C71.6116 64.488 71.8543 65.6267 72.3396 66.616C72.8436 67.5867 73.5343 68.3427 74.4116 68.884C75.3076 69.4067 76.3249 69.668 77.4636 69.668C78.5276 69.668 79.4609 69.4347 80.2636 68.968C81.0849 68.4827 81.7196 67.7733 82.1676 66.84H86.6756C86.0223 68.8373 84.8743 70.396 83.2316 71.516C81.6076 72.6173 79.6943 73.168 77.4916 73.168C75.6249 73.168 73.9356 72.748 72.4236 71.908C70.9303 71.0493 69.7449 69.864 68.8676 68.352C68.0089 66.84 67.5796 65.1227 67.5796 63.2ZM96.9118 73.252C95.4185 73.252 94.0745 72.9253 92.8798 72.272C91.6851 71.6 90.7425 70.6573 90.0518 69.444C89.3798 68.2307 89.0438 66.8307 89.0438 65.244C89.0438 63.6573 89.3891 62.2573 90.0798 61.044C90.7891 59.8307 91.7505 58.8973 92.9638 58.244C94.1771 57.572 95.5305 57.236 97.0238 57.236C98.5171 57.236 99.8705 57.572 101.084 58.244C102.297 58.8973 103.249 59.8307 103.94 61.044C104.649 62.2573 105.004 63.6573 105.004 65.244C105.004 66.8307 104.64 68.2307 103.912 69.444C103.202 70.6573 102.232 71.6 101 72.272C99.7865 72.9253 98.4238 73.252 96.9118 73.252ZM96.9118 69.836C97.6211 69.836 98.2838 69.668 98.8998 69.332C99.5345 68.9773 100.038 68.4547 100.412 67.764C100.785 67.0733 100.972 66.2333 100.972 65.244C100.972 63.7693 100.58 62.64 99.7958 61.856C99.0305 61.0533 98.0878 60.652 96.9678 60.652C95.8478 60.652 94.9051 61.0533 94.1398 61.856C93.3931 62.64 93.0198 63.7693 93.0198 65.244C93.0198 66.7187 93.3838 67.8573 94.1118 68.66C94.8585 69.444 95.7918 69.836 96.9118 69.836ZM114.347 69.388L118.267 57.488H122.439L116.699 73H111.939L106.227 57.488H110.427L114.347 69.388ZM126.629 55.64C125.938 55.64 125.36 55.4253 124.893 54.996C124.445 54.548 124.221 53.9973 124.221 53.344C124.221 52.6907 124.445 52.1493 124.893 51.72C125.36 51.272 125.938 51.048 126.629 51.048C127.32 51.048 127.889 51.272 128.337 51.72C128.804 52.1493 129.037 52.6907 129.037 53.344C129.037 53.9973 128.804 54.548 128.337 54.996C127.889 55.4253 127.32 55.64 126.629 55.64ZM128.561 57.488V73H124.641V57.488H128.561ZM131.426 65.188C131.426 63.62 131.734 62.2293 132.35 61.016C132.985 59.8027 133.843 58.8693 134.926 58.216C136.009 57.5627 137.213 57.236 138.538 57.236C139.546 57.236 140.507 57.46 141.422 57.908C142.337 58.3373 143.065 58.916 143.606 59.644V52.28H147.582V73H143.606V70.704C143.121 71.4693 142.439 72.0853 141.562 72.552C140.685 73.0187 139.667 73.252 138.51 73.252C137.203 73.252 136.009 72.916 134.926 72.244C133.843 71.572 132.985 70.6293 132.35 69.416C131.734 68.184 131.426 66.7747 131.426 65.188ZM143.634 65.244C143.634 64.292 143.447 63.48 143.074 62.808C142.701 62.1173 142.197 61.5947 141.562 61.24C140.927 60.8667 140.246 60.68 139.518 60.68C138.79 60.68 138.118 60.8573 137.502 61.212C136.886 61.5667 136.382 62.0893 135.99 62.78C135.617 63.452 135.43 64.2547 135.43 65.188C135.43 66.1213 135.617 66.9427 135.99 67.652C136.382 68.3427 136.886 68.8747 137.502 69.248C138.137 69.6213 138.809 69.808 139.518 69.808C140.246 69.808 140.927 69.6307 141.562 69.276C142.197 68.9027 142.701 68.38 143.074 67.708C143.447 67.0173 143.634 66.196 143.634 65.244ZM163.339 61.352V64.656H151.467V61.352H163.339ZM166.811 56.2V52.588H173.559V73H169.527V56.2H166.811ZM181.967 67.26C182.117 68.0813 182.453 68.716 182.975 69.164C183.517 69.5933 184.235 69.808 185.131 69.808C186.289 69.808 187.129 69.332 187.651 68.38C188.174 67.4093 188.435 65.7853 188.435 63.508C188.006 64.1053 187.399 64.572 186.615 64.908C185.85 65.244 185.019 65.412 184.123 65.412C182.929 65.412 181.846 65.1693 180.875 64.684C179.923 64.18 179.167 63.4427 178.607 62.472C178.047 61.4827 177.767 60.288 177.767 58.888C177.767 56.816 178.383 55.1733 179.615 53.96C180.847 52.728 182.527 52.112 184.655 52.112C187.306 52.112 189.173 52.9613 190.255 54.66C191.357 56.3587 191.907 58.916 191.907 62.332C191.907 64.7587 191.693 66.7467 191.263 68.296C190.853 69.8453 190.134 71.0213 189.107 71.824C188.099 72.6267 186.718 73.028 184.963 73.028C183.582 73.028 182.406 72.7667 181.435 72.244C180.465 71.7027 179.718 71.0027 179.195 70.144C178.691 69.2667 178.402 68.3053 178.327 67.26H181.967ZM184.935 62.22C185.906 62.22 186.671 61.9213 187.231 61.324C187.791 60.7267 188.071 59.924 188.071 58.916C188.071 57.8147 187.773 56.9653 187.175 56.368C186.597 55.752 185.803 55.444 184.795 55.444C183.787 55.444 182.985 55.7613 182.387 56.396C181.809 57.012 181.519 57.8333 181.519 58.86C181.519 59.8493 181.799 60.6613 182.359 61.296C182.938 61.912 183.797 62.22 184.935 62.22ZM215.378 53.456V56.62H210.17V73H206.25V56.62H201.042V53.456H215.378ZM222.159 59.896C222.663 59.0747 223.316 58.4307 224.119 57.964C224.94 57.4973 225.873 57.264 226.919 57.264V61.38H225.883C224.651 61.38 223.717 61.6693 223.083 62.248C222.467 62.8267 222.159 63.8347 222.159 65.272V73H218.239V57.488H222.159V59.896ZM228.551 65.188C228.551 63.62 228.859 62.2293 229.475 61.016C230.11 59.8027 230.959 58.8693 232.023 58.216C233.106 57.5627 234.31 57.236 235.635 57.236C236.792 57.236 237.8 57.4693 238.659 57.936C239.536 58.4027 240.236 58.9907 240.759 59.7V57.488H244.707V73H240.759V70.732C240.255 71.46 239.555 72.0667 238.659 72.552C237.782 73.0187 236.764 73.252 235.607 73.252C234.3 73.252 233.106 72.916 232.023 72.244C230.959 71.572 230.11 70.6293 229.475 69.416C228.859 68.184 228.551 66.7747 228.551 65.188ZM240.759 65.244C240.759 64.292 240.572 63.48 240.199 62.808C239.826 62.1173 239.322 61.5947 238.687 61.24C238.052 60.8667 237.371 60.68 236.643 60.68C235.915 60.68 235.243 60.8573 234.627 61.212C234.011 61.5667 233.507 62.0893 233.115 62.78C232.742 63.452 232.555 64.2547 232.555 65.188C232.555 66.1213 232.742 66.9427 233.115 67.652C233.507 68.3427 234.011 68.8747 234.627 69.248C235.262 69.6213 235.934 69.808 236.643 69.808C237.371 69.808 238.052 69.6307 238.687 69.276C239.322 68.9027 239.826 68.38 240.199 67.708C240.572 67.0173 240.759 66.196 240.759 65.244ZM247.528 65.244C247.528 63.6387 247.854 62.2387 248.508 61.044C249.161 59.8307 250.066 58.8973 251.224 58.244C252.381 57.572 253.706 57.236 255.2 57.236C257.122 57.236 258.709 57.7213 259.96 58.692C261.229 59.644 262.078 60.988 262.508 62.724H258.28C258.056 62.052 257.673 61.5293 257.132 61.156C256.609 60.764 255.956 60.568 255.172 60.568C254.052 60.568 253.165 60.9787 252.512 61.8C251.858 62.6027 251.532 63.7507 251.532 65.244C251.532 66.7187 251.858 67.8667 252.512 68.688C253.165 69.4907 254.052 69.892 255.172 69.892C256.758 69.892 257.794 69.1827 258.28 67.764H262.508C262.078 69.444 261.229 70.7787 259.96 71.768C258.69 72.7573 257.104 73.252 255.2 73.252C253.706 73.252 252.381 72.9253 251.224 72.272C250.066 71.6 249.161 70.6667 248.508 69.472C247.854 68.2587 247.528 66.8493 247.528 65.244ZM274.563 73L269.299 66.392V73H265.379V52.28H269.299V64.068L274.507 57.488H279.603L272.771 65.272L279.659 73H274.563ZM296.151 64.908C296.151 65.468 296.113 65.972 296.039 66.42H284.699C284.792 67.54 285.184 68.4173 285.875 69.052C286.565 69.6867 287.415 70.004 288.423 70.004C289.879 70.004 290.915 69.3787 291.531 68.128H295.759C295.311 69.6213 294.452 70.8533 293.183 71.824C291.913 72.776 290.355 73.252 288.507 73.252C287.013 73.252 285.669 72.9253 284.475 72.272C283.299 71.6 282.375 70.6573 281.703 69.444C281.049 68.2307 280.723 66.8307 280.723 65.244C280.723 63.6387 281.049 62.2293 281.703 61.016C282.356 59.8027 283.271 58.8693 284.447 58.216C285.623 57.5627 286.976 57.236 288.507 57.236C289.981 57.236 291.297 57.5533 292.455 58.188C293.631 58.8227 294.536 59.728 295.171 60.904C295.824 62.0613 296.151 63.396 296.151 64.908ZM292.091 63.788C292.072 62.78 291.708 61.9773 290.999 61.38C290.289 60.764 289.421 60.456 288.395 60.456C287.424 60.456 286.603 60.7547 285.931 61.352C285.277 61.9307 284.876 62.7427 284.727 63.788H292.091ZM302.932 59.896C303.436 59.0747 304.089 58.4307 304.892 57.964C305.713 57.4973 306.647 57.264 307.692 57.264V61.38H306.656C305.424 61.38 304.491 61.6693 303.856 62.248C303.24 62.8267 302.932 63.8347 302.932 65.272V73H299.012V57.488H302.932V59.896Z" fill="#16056B"/>
<defs>
<linearGradient id="paint0_linear" x1="174.5" y1="228.232" x2="174.5" y2="231.732" gradientUnits="userSpaceOnUse">
<stop stop-color="#FFE2E2"/>
<stop offset="1" stop-color="#FCC7C7"/>
</linearGradient>
<linearGradient id="paint1_linear" x1="116.5" y1="256.5" x2="122" y2="267.5" gradientUnits="userSpaceOnUse">
<stop stop-color="#FFB5B5"/>
<stop offset="1" stop-color="#F28888"/>
</linearGradient>
<linearGradient id="paint2_linear" x1="68.5" y1="327.5" x2="98" y2="350.5" gradientUnits="userSpaceOnUse">
<stop stop-color="#8FDCFF"/>
<stop offset="1" stop-color="#09A6EE"/>
</linearGradient>
<linearGradient id="paint3_linear" x1="96" y1="271" x2="96" y2="278" gradientUnits="userSpaceOnUse">
<stop stop-color="#F0F2F4"/>
<stop offset="1" stop-color="white"/>
</linearGradient>
<linearGradient id="paint4_linear" x1="227.714" y1="209.475" x2="227.714" y2="232.126" gradientUnits="userSpaceOnUse">
<stop stop-color="#FFE9E9"/>
<stop offset="1" stop-color="#FFBFBF"/>
</linearGradient>
<linearGradient id="paint5_linear" x1="220.27" y1="207.5" x2="220.27" y2="233.252" gradientUnits="userSpaceOnUse">
<stop stop-color="#FFE9E9"/>
<stop offset="1" stop-color="#FFBFBF"/>
</linearGradient>
<linearGradient id="paint6_linear" x1="208.137" y1="212.795" x2="208.137" y2="235.346" gradientUnits="userSpaceOnUse">
<stop stop-color="#FFE9E9"/>
<stop offset="1" stop-color="#FFBFBF"/>
</linearGradient>
<linearGradient id="paint7_linear" x1="196.87" y1="219.192" x2="196.87" y2="233.99" gradientUnits="userSpaceOnUse">
<stop stop-color="#FFE9E9"/>
<stop offset="1" stop-color="#FFBFBF"/>
</linearGradient>
<linearGradient id="paint8_linear" x1="274.5" y1="265.732" x2="276.5" y2="277.232" gradientUnits="userSpaceOnUse">
<stop stop-color="#FCC7C7"/>
<stop offset="1" stop-color="#FFB0B0"/>
</linearGradient>
<linearGradient id="paint9_linear" x1="281.5" y1="278.5" x2="282" y2="282.5" gradientUnits="userSpaceOnUse">
<stop stop-color="white"/>
<stop offset="1" stop-color="#E9E9E9"/>
</linearGradient>
<linearGradient id="paint10_linear" x1="303.5" y1="368" x2="334" y2="327" gradientUnits="userSpaceOnUse">
<stop stop-color="#0087C5"/>
<stop offset="1" stop-color="#10B4FF"/>
</linearGradient>
<linearGradient id="paint11_linear" x1="232.706" y1="250.232" x2="236" y2="280.232" gradientUnits="userSpaceOnUse">
<stop stop-color="#FFD5D5"/>
<stop offset="1" stop-color="#FFAEAE"/>
</linearGradient>
<linearGradient id="paint12_linear" x1="263" y1="332" x2="257.5" y2="344" gradientUnits="userSpaceOnUse">
<stop stop-color="#FFB1B1"/>
<stop offset="1" stop-color="#FF8181"/>
</linearGradient>
<linearGradient id="paint13_linear" x1="246" y1="284.5" x2="247" y2="298" gradientUnits="userSpaceOnUse">
<stop stop-color="#EAEAFF"/>
<stop offset="1" stop-color="#D6D6FF"/>
</linearGradient>
<linearGradient id="paint14_linear" x1="246" y1="284.5" x2="247" y2="298" gradientUnits="userSpaceOnUse">
<stop stop-color="#EAEAFF"/>
<stop offset="1" stop-color="#D6D6FF"/>
</linearGradient>
<linearGradient id="paint15_linear" x1="158" y1="241.732" x2="159" y2="251.732" gradientUnits="userSpaceOnUse">
<stop stop-color="#FFD5D5"/>
<stop offset="1" stop-color="#FFBABA"/>
</linearGradient>
<linearGradient id="paint16_linear" x1="109" y1="313" x2="119.5" y2="345.5" gradientUnits="userSpaceOnUse">
<stop stop-color="#4A63E7"/>
<stop offset="1" stop-color="#102BB7"/>
</linearGradient>
<linearGradient id="paint17_linear" x1="285.5" y1="145" x2="285.5" y2="151" gradientUnits="userSpaceOnUse">
<stop stop-color="#E4E4FF"/>
<stop offset="1" stop-color="#D0D0FF"/>
</linearGradient>
<linearGradient id="paint18_linear" x1="331.5" y1="178" x2="331.5" y2="185" gradientUnits="userSpaceOnUse">
<stop stop-color="#E4E4FF"/>
<stop offset="1" stop-color="#D0D0FF"/>
</linearGradient>
<linearGradient id="paint19_linear" x1="56.5" y1="164" x2="56.5" y2="175" gradientUnits="userSpaceOnUse">
<stop stop-color="#E4E4FF"/>
<stop offset="1" stop-color="#D0D0FF"/>
</linearGradient>
<linearGradient id="paint20_linear" x1="187.5" y1="424" x2="187.5" y2="476" gradientUnits="userSpaceOnUse">
<stop stop-color="#F4F4FF"/>
<stop offset="1" stop-color="#DFDFFF"/>
</linearGradient>
<linearGradient id="paint21_linear" x1="231" y1="366" x2="256" y2="334.5" gradientUnits="userSpaceOnUse">
<stop stop-color="#2454AD"/>
<stop offset="1" stop-color="#062E79"/>
</linearGradient>
<linearGradient id="paint22_linear" x1="174" y1="382.5" x2="150" y2="406.5" gradientUnits="userSpaceOnUse">
<stop offset="0.0123902" stop-color="#0081CD"/>
<stop offset="1" stop-color="#06A2FE"/>
</linearGradient>
<linearGradient id="paint23_linear" x1="208.5" y1="173" x2="203" y2="180.5" gradientUnits="userSpaceOnUse">
<stop stop-color="#FE9B86"/>
<stop offset="1" stop-color="#FF5F5F"/>
</linearGradient>
<linearGradient id="paint24_linear" x1="178" y1="174" x2="192.5" y2="207" gradientUnits="userSpaceOnUse">
<stop stop-color="#FE9B86"/>
<stop offset="1" stop-color="#F15887"/>
<stop offset="1" stop-color="#ED0606"/>
</linearGradient>
<linearGradient id="paint25_linear" x1="188" y1="168.5" x2="188" y2="239.5" gradientUnits="userSpaceOnUse">
<stop stop-color="#FF8B8B" stop-opacity="0"/>
<stop offset="1" stop-color="#FF4E4E" stop-opacity="0.29"/>
</linearGradient>
</defs>
</svg>
